<?xml version="1.0" encoding="UTF-8" standalone="no"?>
<svg
   xmlns:dc="http://purl.org/dc/elements/1.1/"
   xmlns:cc="http://creativecommons.org/ns#"
   xmlns:rdf="http://www.w3.org/1999/02/22-rdf-syntax-ns#"
   xmlns:svg="http://www.w3.org/2000/svg"
   xmlns="http://www.w3.org/2000/svg"
   xmlns:sodipodi="http://sodipodi.sourceforge.net/DTD/sodipodi-0.dtd"
   xmlns:inkscape="http://www.inkscape.org/namespaces/inkscape"
   inkscape:version="1.0 (4035a4fb49, 2020-05-01)"
   height="228.61301"
   width="182"
   sodipodi:docname="KeepCup.svg"
   xml:space="preserve"
   viewBox="0 0 182 228.613"
   y="0px"
   x="0px"
   id="Layer_1"
   version="1.1"><metadata
   id="metadata23"><rdf:RDF><cc:Work
       rdf:about=""><dc:format>image/svg+xml</dc:format><dc:type
         rdf:resource="http://purl.org/dc/dcmitype/StillImage" /><dc:title></dc:title></cc:Work></rdf:RDF></metadata><defs
   id="defs21">
	
	
</defs><sodipodi:namedview
   inkscape:current-layer="Layer_1"
   inkscape:window-maximized="1"
   inkscape:window-y="-8"
   inkscape:window-x="-8"
   inkscape:cy="241.61366"
   inkscape:cx="420.94501"
   inkscape:zoom="1.4278994"
   showgrid="false"
   id="namedview19"
   inkscape:window-height="1017"
   inkscape:window-width="1920"
   inkscape:pageshadow="2"
   inkscape:pageopacity="0"
   guidetolerance="10"
   gridtolerance="10"
   objecttolerance="10"
   borderopacity="1"
   bordercolor="#666666"
   pagecolor="#ffffff" />
<style
   id="style2"
   type="text/css">
	.st0{fill:#F8F8F7;}
</style>
<g
   transform="matrix(0.99476215,0,0,0.99476215,-324.01981,-150.37981)"
   id="g860"><path
     id="path4"
     d="m 500.27756,231.13 c 8.08224,-5.32 7.83279,-8.81 7.90263,-11.79 0.0998,-4.06 -5.14868,-40.89 -10.17763,-48.87 -6.39595,-10.15 -51.47689,-18.73 -80.76254,-18.73 h -0.0699 c -29.27567,0 -74.35661,8.58 -80.76254,18.73 -5.02895,7.98 -10.27742,44.81 -10.17763,48.87 0.0698,2.98 -0.17961,6.47 7.90263,11.79 0.0599,0.06 0.11974,0.14 0.14967,0.22 v 6.9 c -3.30274,3.72 2.05549,41.71 3.29277,46.68 0.97785,3.91 4.74956,7.04 6.31612,8.2 0.4091,0.35 0.67851,0.47 0.79824,1.1 0.01,0.04 0.02,0.05 0.0299,0.08 11.43487,59.7 13.67994,67.96 15.12676,70.4 1.71623,2.88 11.12555,15.71 57.32404,15.71 h 0.0699 c 46.18851,0 55.60781,-12.82 57.32404,-15.71 1.44682,-2.43 3.69189,-10.69 15.12676,-70.4 0.01,-0.03 0.0299,-0.04 0.0299,-0.08 0.11974,-0.63 0.38915,-0.75 0.79825,-1.1 1.56656,-1.16 5.33827,-4.29 6.31612,-8.2 1.2273,-4.98 6.58553,-42.96 3.29277,-46.68 v -6.9 c 0.0299,-0.08 0.0898,-0.15 0.14967,-0.22 z"
     style="stroke-width:0.998903" /><g
     id="g14"
     transform="matrix(0.9978075,0,0,1,0.71525467,0)">
		<path
   id="path6"
   d="m 440.64,272.23 c -2.38,0.66 -4.5,1.72 -6.35,3.13 -0.47,-2.21 -2.49,-3.75 -4.77,-3.57 -2.49,0.19 -4.36,2.37 -4.15,4.87 l 1.24,15.59 c 0.12,1.84 0.13,3.43 0.05,4.71 -0.08,1.4 -0.26,2.45 -0.48,3.2 -0.34,1.14 -0.66,1.53 -0.99,1.84 -0.25,0.23 -0.64,0.47 -1.3,0.71 -0.54,-0.73 -1.42,-2.54 -2.09,-5.11 -1.13,-4.15 -1.92,-10.21 -2.13,-17.48 0,-0.35 -0.05,-0.68 -0.13,-0.99 v 0 c 0,-0.01 -0.01,-0.03 -0.02,-0.05 v 0 c 0,-0.01 0,-0.03 -0.01,-0.05 l -0.01,-0.01 c 0,0 0,-0.01 0,-0.04 -0.01,0 -0.01,-0.01 -0.01,-0.03 0,0 0,-0.02 -0.01,-0.02 0,-0.02 0,-0.02 0,-0.04 0,0 0,0 0,-0.02 -0.01,-0.02 -0.01,-0.02 -0.01,-0.04 0,0 0,-0.01 0,-0.01 0,-0.01 0,-0.03 -0.02,-0.04 0,0 -0.01,0 -0.01,0 -0.06,-0.21 -0.14,-0.42 -0.24,-0.61 l -0.01,-0.01 c -0.01,0 -0.02,-0.02 -0.02,-0.04 h -0.01 c 0,0 0,-0.02 0,-0.03 0,0 -0.01,-0.02 -0.02,-0.03 0,0 0,-0.01 -0.01,-0.02 -0.01,-0.01 -0.01,-0.02 -0.01,-0.02 l -0.02,-0.01 c -0.37,-0.66 -0.92,-1.22 -1.56,-1.63 v 0 c -0.02,0 -0.02,-0.02 -0.04,-0.02 -0.02,0 -0.03,0 -0.04,0 -0.01,-0.01 -0.01,-0.01 -0.01,-0.01 -0.53,-0.33 -1.14,-0.52 -1.77,-0.59 v 0 c -0.02,0 -0.04,-0.01 -0.05,-0.01 0,0 -0.01,-0.01 -0.01,-0.01 -0.01,0 -0.03,0 -0.04,0 -0.02,0 -0.02,0 -0.02,0 -0.02,0 -0.02,0 -0.04,0 0,0 0,0 -0.02,0 -0.01,0 -0.02,0 -0.04,0 0,0 -0.01,0 -0.02,0 -0.02,-0.01 -0.02,-0.01 -0.03,-0.01 0,0 -0.02,0 -0.03,0 -0.02,0 -0.03,0 -0.04,0 0,-0.01 -0.01,0 -0.01,-0.01 -0.02,0 -0.03,0 -0.03,0 -0.02,0 -0.03,0 -0.04,0.01 h -0.02 c -0.01,0 -0.02,0 -0.03,0 -0.02,-0.01 -0.02,0 -0.02,0 -0.01,0 -0.03,0 -0.05,-0.01 0,0.01 -0.01,0.01 -0.01,0.01 -0.02,0 -0.03,0 -0.04,0 -0.02,0 -0.04,0 -0.06,-0.01 -0.02,0 -0.03,0 -0.06,0 0,0 0,0 -0.01,0 -0.04,0 -0.08,0 -0.13,0 0,0 0,0 0,0 -0.01,0 -0.01,0 -0.02,0 0,0 -0.01,0 -0.02,0 0,0 0,0 -0.01,0 -0.01,0 -0.02,0 -0.02,0 -0.01,0 -0.01,0 -0.01,0 -0.01,0.02 -0.01,0.02 -0.02,0 0,0 0,0 -0.01,0 -0.64,0.07 -1.27,0.27 -1.81,0.6 0,0 -0.01,0 -0.02,0 -0.01,0.01 -0.01,0.01 -0.02,0.01 -0.97,0.58 -1.72,1.5 -2.04,2.59 v 0.01 c 0,0.02 -0.02,0.02 -0.02,0.06 v 0 c 0,0.06 -0.04,0.13 -0.04,0.2 v 0.01 c -0.01,0.01 -0.02,0.03 -0.01,0.04 -0.01,0.01 -0.01,0.01 -0.01,0.01 0,0.02 0,0.03 -0.01,0.04 0,0 0,0.01 0,0.01 0,0.02 0,0.02 0,0.03 0,0.01 0,0.01 -0.01,0.03 0,0.01 0,0.03 0,0.04 0,0 0,0.01 -0.02,0.01 0,0.02 0,0.03 0,0.04 0,0.01 0,0.01 0,0.02 0,0.02 0,0.03 -0.01,0.04 0.01,0.01 0,0.01 0.01,0.03 v 0.02 c -0.01,0.01 -0.01,0.03 -0.02,0.03 0.01,0.02 0.01,0.02 0,0.03 0,0 0.01,0.02 0,0.04 v 0.01 c 0,0.01 0,0.03 0,0.04 -0.01,0 -0.01,0 -0.01,0 -0.02,0.22 -0.03,0.44 -0.01,0.65 0,0.13 -0.01,0.26 0,0.4 0.23,7.45 1.01,14.4 0.45,19.17 -0.27,2.43 -0.85,4.18 -1.61,5.28 -0.78,1.08 -1.64,1.82 -3.75,2.42 -0.2,0.05 -0.4,0.1 -0.61,0.15 -1.66,0.32 -2.64,0.07 -3.74,-0.69 -1.07,-0.79 -2.37,-2.53 -3.24,-5.75 -0.59,-2.18 -0.96,-5 -0.96,-8.45 0.08,-1.41 0.12,-2.77 0.15,-4.06 0.05,-0.64 0.09,-1.27 0.16,-1.95 0.24,-2.47 -1.57,-4.69 -4.06,-4.94 -0.63,-0.05 -1.24,0.02 -1.8,0.2 -1.89,0.52 -3.29,2.24 -3.32,4.32 0,0.62 -0.01,1.28 -0.02,1.95 -0.1,1.45 -0.16,2.86 -0.15,4.21 -0.23,4.18 -0.74,8.6 -1.89,12.39 -0.86,2.89 -2.06,5.36 -3.58,7.18 -1.53,1.83 -3.29,3.08 -5.84,3.76 -1.01,0.27 -2.15,0.45 -3.47,0.5 -2.72,0.07 -4.53,-0.65 -5.96,-1.77 -1.42,-1.14 -2.47,-2.81 -3.02,-4.84 -0.55,-2.06 -0.55,-4.44 0.09,-6.6 0.65,-2.19 1.86,-4.15 3.69,-5.64 1.4,-1.13 2.61,-1.71 3.63,-1.97 1.55,-0.42 2.71,-0.19 3.51,0.17 0.21,0.09 0.39,0.21 0.53,0.3 0.05,1.8 1.18,3.48 2.98,4.12 2.36,0.84 4.95,-0.38 5.79,-2.74 v 0 c 0.49,-1.35 0.42,-2.74 0.13,-3.82 -0.44,-1.56 -1.26,-2.71 -2.21,-3.71 -1.46,-1.46 -3.34,-2.53 -5.58,-3.14 -2.22,-0.58 -4.82,-0.65 -7.51,0.07 -2.34,0.63 -4.71,1.85 -6.97,3.69 -3.37,2.73 -5.57,6.34 -6.66,10.13 -1.11,3.78 -1.15,7.75 -0.15,11.48 0.97,3.63 2.98,7.04 6.09,9.55 3.1,2.49 7.29,3.91 11.92,3.74 1.95,-0.07 3.79,-0.32 5.52,-0.79 0.02,0 0.04,-0.01 0.08,-0.02 4.34,-1.17 7.85,-3.66 10.37,-6.71 1.56,-1.91 2.77,-3.98 3.72,-6.15 0.79,0.95 1.64,1.78 2.62,2.53 3.16,2.41 7.3,3.12 11.04,2.28 0.36,-0.08 0.72,-0.16 1.06,-0.26 0.05,-0.01 0.1,-0.02 0.15,-0.04 3.72,-0.99 6.8,-3.16 8.71,-6 0.24,-0.35 0.46,-0.71 0.66,-1.07 0.78,0.8 1.72,1.52 2.87,2.03 1.51,0.69 3.42,0.84 5.04,0.38 0.85,-0.23 1.71,-0.53 2.55,-0.9 l 1.07,13.49 c 0.2,2.49 2.38,4.35 4.87,4.15 0.29,-0.02 0.56,-0.08 0.83,-0.14 2.06,-0.56 3.49,-2.51 3.33,-4.72 l -1.35,-16.89 c 3.99,2.12 8.77,2.77 13.48,1.5 9.91,-2.67 15.79,-12.87 13.13,-22.79 -2.69,-9.9 -12.89,-15.77 -22.8,-13.12 z m 7.32,27.19 c -5.09,1.37 -10.33,-1.65 -11.71,-6.73 -1.35,-5.1 1.65,-10.33 6.74,-11.71 5.1,-1.37 10.32,1.66 11.7,6.74 1.37,5.09 -1.64,10.32 -6.73,11.7 z"
   class="st0" />
		<path
   id="path8"
   d="m 469.34,220.17 c -2.37,0.64 -4.5,1.71 -6.35,3.1 -0.47,-2.2 -2.48,-3.75 -4.77,-3.57 -2.49,0.19 -4.35,2.38 -4.15,4.87 l 1.33,16.78 c -0.01,0.19 -0.03,0.38 -0.06,0.57 -0.32,2.86 -1.26,6.19 -3.41,8.83 -0.66,0.81 -1.78,1.69 -3.18,2.45 -1.4,0.73 -3.05,1.38 -4.66,1.88 -0.14,0.05 -0.28,0.08 -0.45,0.13 -1.1,0.3 -2.26,0.44 -3.42,0.42 1.7,-1.88 3.49,-3.95 5.15,-6.05 1.84,-2.35 3.54,-4.71 4.8,-7 0.64,-1.16 1.17,-2.3 1.53,-3.55 0.35,-1.24 0.62,-2.66 0.17,-4.46 -0.02,-0.07 -0.02,-0.12 -0.04,-0.15 v 0 l -0.03,-0.12 c -0.62,-1.85 -1.69,-3.01 -2.72,-3.93 -1.55,-1.34 -3.24,-2.21 -4.82,-2.89 -1.59,-0.69 -3.01,-1.15 -4.24,-1.41 -2.77,-0.58 -5.52,-0.43 -8.02,0.25 -3.49,0.95 -6.51,2.86 -8.86,5.3 -2.35,2.46 -4.06,5.49 -4.7,8.86 -0.55,2.91 -0.41,5.77 0.3,8.39 1,3.66 2.99,6.8 5.61,9.3 -3.27,2.22 -7.43,4.22 -11.66,5.34 -2.85,0.77 -5.75,1.16 -8.44,1.06 2.61,-3.12 5.01,-6.11 6.97,-8.73 1.49,-2 2.73,-3.8 3.65,-5.43 0.45,-0.84 0.85,-1.61 1.16,-2.51 0.15,-0.45 0.28,-0.94 0.36,-1.54 0.07,-0.59 0.1,-1.32 -0.13,-2.24 -0.02,-0.04 -0.02,-0.04 -0.02,-0.04 v 0 0 l -0.05,-0.15 c -0.6,-1.86 -1.68,-3.04 -2.71,-3.95 -1.56,-1.35 -3.26,-2.22 -4.84,-2.91 -1.6,-0.69 -3,-1.15 -4.23,-1.41 -2.77,-0.57 -5.52,-0.42 -8.02,0.25 -3.49,0.95 -6.51,2.86 -8.86,5.31 -2.34,2.47 -4.05,5.48 -4.7,8.87 -0.55,2.87 -0.38,5.84 0.39,8.71 0.91,3.35 2.68,6.64 5.43,9.19 -1.81,1.36 -3.5,2.2 -5.07,2.61 -2.77,0.71 -5.5,0.44 -9,-1.25 -2.45,-1.19 -5.18,-3.14 -8.13,-5.85 0.95,-0.7 1.98,-1.49 3.04,-2.37 2.05,-1.7 4.19,-3.75 6.08,-6.13 1.85,-2.39 3.49,-5.13 4.23,-8.38 0.54,-2.43 -0.99,-4.85 -3.43,-5.39 -2.43,-0.54 -4.85,0.99 -5.4,3.43 v 0 c -0.29,1.36 -1.18,3.07 -2.52,4.76 -1.52,1.95 -3.56,3.83 -5.48,5.38 l -2.18,-27.32 c -0.19,-2.48 -2.38,-4.33 -4.87,-4.14 -2.48,0.2 -4.34,2.37 -4.14,4.86 l 0.38,4.92 c -0.02,0.24 -0.02,0.5 0,0.76 l 3.79,47.6 c 0.2,2.49 2.38,4.35 4.86,4.15 0.29,-0.02 0.56,-0.06 0.83,-0.14 2.05,-0.55 3.5,-2.52 3.32,-4.73 l -0.39,-4.9 c 0.02,-0.24 0.02,-0.52 0.01,-0.78 l -0.11,-1.44 c 2.02,1.54 4.05,2.83 6.12,3.84 4.91,2.45 10.25,3.27 15.34,1.86 4.06,-1.09 7.78,-3.43 11.25,-6.77 1.99,0.58 4.03,0.9 6.04,1.03 4.01,0.24 8.01,-0.31 11.81,-1.32 6.78,-1.84 12.96,-5.15 17.57,-8.96 4.18,1.5 8.84,1.88 13.4,0.67 0.25,-0.07 0.5,-0.14 0.75,-0.22 2.01,-0.62 4.17,-1.43 6.29,-2.57 1.29,-0.7 2.55,-1.52 3.74,-2.51 l 1.08,13.54 c 0.2,2.48 2.38,4.34 4.87,4.14 0.28,-0.02 0.55,-0.07 0.82,-0.14 2.06,-0.55 3.5,-2.53 3.33,-4.73 l -1.34,-16.89 c 4,2.1 8.77,2.78 13.47,1.51 9.92,-2.68 15.79,-12.87 13.13,-22.79 -2.69,-9.96 -12.89,-15.84 -22.8,-13.16 z m -74.36,41.33 c -1.41,-1.23 -2.49,-3.04 -3.03,-5.08 -0.45,-1.62 -0.5,-3.32 -0.25,-4.69 0.25,-1.37 1.07,-2.96 2.36,-4.29 1.25,-1.31 2.93,-2.35 4.66,-2.81 0,0 0.01,0 0.02,-0.01 1.25,-0.33 2.55,-0.4 3.85,-0.12 0.48,0.08 2.22,0.64 3.48,1.32 0.27,0.13 0.52,0.28 0.75,0.42 -0.19,0.32 -0.41,0.68 -0.66,1.05 -1.2,1.85 -3.1,4.39 -5.37,7.21 -1.75,2.19 -3.74,4.57 -5.81,7 z m 36.15,-9.38 c -1.82,-1.57 -3.12,-3.54 -3.67,-5.61 -0.36,-1.35 -0.45,-2.79 -0.16,-4.37 0.26,-1.37 1.08,-2.97 2.35,-4.29 1.26,-1.32 2.92,-2.35 4.66,-2.81 0,-0.01 0.01,-0.01 0.03,-0.01 1.25,-0.33 2.53,-0.4 3.85,-0.12 0.47,0.08 2.21,0.62 3.47,1.3 0.46,0.26 0.87,0.52 1.18,0.74 -0.27,0.63 -0.76,1.62 -1.45,2.68 -1.58,2.47 -4.04,5.57 -6.5,8.37 -1.3,1.49 -2.59,2.89 -3.76,4.12 z m 45.52,-4.78 c -5.1,1.35 -10.34,-1.66 -11.71,-6.74 -1.36,-5.09 1.65,-10.33 6.75,-11.71 5.1,-1.36 10.33,1.66 11.7,6.74 1.36,5.1 -1.65,10.34 -6.74,11.71 z"
   class="st0" />
		<g
   id="g12">
			<path
   id="path10"
   d="m 474.39,264.71 c 0.04,0.02 -0.05,0.39 -0.47,0.51 -0.28,0.07 -0.46,0 -0.76,-0.22 l -1.21,-0.92 -0.37,0.1 0.29,1.11 c 0.07,0.29 -0.03,0.49 -0.31,0.56 l -0.14,0.03 c -0.25,0.09 -0.46,-0.07 -0.55,-0.42 L 470,262.23 c -0.1,-0.35 0.04,-0.61 0.37,-0.69 l 1.26,-0.34 c 1.11,-0.29 1.82,0.02 2.05,0.88 0.18,0.7 -0.08,1.25 -0.77,1.57 z m -2.28,-1.45 c 0.53,-0.14 0.71,-0.45 0.61,-0.85 -0.11,-0.42 -0.44,-0.57 -0.97,-0.42 l -0.73,0.2 0.34,1.27 z"
   class="st0" />
		</g>
	</g></g>
</svg>
